<?xml version="1.0" encoding="utf-8"?>
<!-- Generator: Adobe Illustrator 16.0.0, SVG Export Plug-In . SVG Version: 6.00 Build 0)  -->
<!DOCTYPE svg PUBLIC "-//W3C//DTD SVG 1.1//EN" "http://www.w3.org/Graphics/SVG/1.1/DTD/svg11.dtd">
<svg version="1.1" id="Layer_1" xmlns="http://www.w3.org/2000/svg" xmlns:xlink="http://www.w3.org/1999/xlink" x="0px" y="0px"
	 width="792px" height="612px" viewBox="0 0 792 612" enable-background="new 0 0 792 612" xml:space="preserve">
<circle fill="#BAE2DE" cx="396" cy="306" r="83.636"/>
<circle fill="#90B7B2" cx="396" cy="306.273" r="74.479"/>
<text transform="matrix(1 0 0 1 344.8848 303.4136)" fill="#4E6B6A" font-family="'Futura-Book'" font-size="22.9072">ORLEANS</text>
<rect x="345.998" y="303.413" fill="none" width="90.674" height="38.497"/>
<text transform="matrix(1 0 0 1 345.998 324.4121)" fill="#4E6B6A" font-family="'Futura-Book'" font-size="25.4525">WAVE</text>
<path fill="#4E6B6A" d="M421.242,312.004c0,0,5.727-8.909,15.907-3.183c0,0,5.647,4.123,10.181,3.183c0,0,4.137-1.932,6.045-5.103
	c0,0-0.636,14.328-13.361,11.783c0,0-13.92-6.362-22.271,0.302C417.742,318.987,419.271,314.197,421.242,312.004z"/>
<path fill="#4E6B6A" d="M419.65,319.533c0,0,8.909-5.376,15.061-0.074c0,0-1.697,3.182-6.575,0
	C428.136,319.459,424.317,318.685,419.65,319.533z"/>
<path fill="#4E6B6A" d="M420.394,320.54c0,0,2.253-1.458,5.858,0.026C426.252,320.566,427.817,322.502,420.394,320.54z"/>
</svg>
